HIERARCHY
ROOT newVegas:Hips
{
	OFFSET 0.000000 96.479958 0.000000
	CHANNELS 6 Xposition Yposition Zposition Xrotation Yrotation Zrotation
	JOINT newVegas:Pelvis
	{
		OFFSET 0.000000 0.000000 0.000000
		CHANNELS 3 Xrotation Yrotation Zrotation
		JOINT newVegas:LeftUpLeg
		{
			OFFSET 18.735201 -5.666702 -4.541200
			CHANNELS 3 Xrotation Yrotation Zrotation
			JOINT newVegas:LeftLeg
			{
				OFFSET -0.021200 -31.938179 0.493100
				CHANNELS 3 Xrotation Yrotation Zrotation
				JOINT newVegas:LeftFoot
				{
					OFFSET 0.021200 -31.938179 -4.336299
					CHANNELS 3 Xrotation Yrotation Zrotation
					JOINT newVegas:LeftToeBase
					{
						OFFSET 0.943001 -26.722000 15.023500
						CHANNELS 3 Xrotation Yrotation Zrotation
						End Site
						{
							OFFSET 0.000000 30.670183 0.000000
						}
					}
				}
				JOINT newVegas:Left_PantLeg
				{
					OFFSET 0.663870 -9.044666 -1.108900
					CHANNELS 3 Xrotation Yrotation Zrotation
					End Site
					{
						OFFSET 1.415995 20.635357 0.000000
					}
				}
			}
		}
		JOINT newVegas:RightUpLeg
		{
			OFFSET -18.735201 -5.666702 -4.541200
			CHANNELS 3 Xrotation Yrotation Zrotation
			JOINT newVegas:RightLeg
			{
				OFFSET 0.018946 -31.938133 0.493100
				CHANNELS 3 Xrotation Yrotation Zrotation
				JOINT newVegas:RightFoot
				{
					OFFSET -0.018946 -31.938126 -4.336299
					CHANNELS 3 Xrotation Yrotation Zrotation
					JOINT newVegas:RightToeBase
					{
						OFFSET -0.943001 -26.722004 15.023500
						CHANNELS 3 Xrotation Yrotation Zrotation
						End Site
						{
							OFFSET 0.000000 30.670187 0.000000
						}
					}
				}
				JOINT newVegas:Right_PantLeg
				{
					OFFSET -0.661674 -9.044716 -1.108900
					CHANNELS 3 Xrotation Yrotation Zrotation
					End Site
					{
						OFFSET -1.415958 20.635269 0.000000
					}
				}
			}
		}
	}
	JOINT newVegas:Spine
	{
		OFFSET 0.000000 10.199997 -0.299500
		CHANNELS 3 Xrotation Yrotation Zrotation
		JOINT newVegas:Spine1
		{
			OFFSET 0.000000 11.900002 -1.516600
			CHANNELS 3 Xrotation Yrotation Zrotation
			JOINT newVegas:Spine2
			{
				OFFSET 0.000000 13.600006 -2.842500
				CHANNELS 3 Xrotation Yrotation Zrotation
				JOINT newVegas:Neck
				{
					OFFSET 0.000000 9.624100 -2.890100
					CHANNELS 3 Xrotation Yrotation Zrotation
					JOINT newVegas:Head
					{
						OFFSET 0.000000 14.068802 -1.351900
						CHANNELS 3 Xrotation Yrotation Zrotation
						JOINT newVegas:Hair_Back
						{
							OFFSET 0.000000 3.231903 -17.524799
							CHANNELS 3 Xrotation Yrotation Zrotation
							End Site
							{
								OFFSET 0.000000 19.849884 0.000000
							}
						}
						JOINT newVegas:Hair_Front
						{
							OFFSET 0.000000 31.260406 4.573800
							CHANNELS 3 Xrotation Yrotation Zrotation
							JOINT newVegas:Hair_Front1
							{
								OFFSET 0.000000 2.284103 11.993300
								CHANNELS 3 Xrotation Yrotation Zrotation
								JOINT newVegas:Hair_Front2
								{
									OFFSET 0.000000 2.284103 11.993300
									CHANNELS 3 Xrotation Yrotation Zrotation
									End Site
									{
										OFFSET 0.000000 12.208862 0.000000
									}
								}
							}
						}
						JOINT newVegas:Jowel
						{
							OFFSET 0.000000 -7.458206 6.864100
							CHANNELS 3 Xrotation Yrotation Zrotation
							End Site
							{
								OFFSET 0.000000 19.849884 0.000000
							}
						}
					}
				}
				JOINT newVegas:LeftShoulder
				{
					OFFSET 15.263000 10.923401 -0.547700
					CHANNELS 3 Xrotation Yrotation Zrotation
					JOINT newVegas:LeftArm
					{
						OFFSET 25.438599 -2.830597 -13.032500
						CHANNELS 3 Xrotation Yrotation Zrotation
						JOINT newVegas:LeftForeArm
						{
							OFFSET 29.960503 0.000000 0.000000
							CHANNELS 3 Xrotation Yrotation Zrotation
							JOINT newVegas:LeftHand
							{
								OFFSET 27.849251 0.000000 0.000000
								CHANNELS 3 Xrotation Yrotation Zrotation
								JOINT newVegas:LeftHandThumb1
								{
									OFFSET 4.487587 -3.305161 6.305391
									CHANNELS 3 Xrotation Yrotation Zrotation
									JOINT newVegas:LeftHandThumb2
									{
										OFFSET 5.480453 -3.164139 3.164143
										CHANNELS 3 Xrotation Yrotation Zrotation
										JOINT newVegas:LeftHandThumb3
										{
											OFFSET 5.159721 -2.978973 2.978967
											CHANNELS 3 Xrotation Yrotation Zrotation
											End Site
											{
												OFFSET 2.494507 5.926697 1.738678
											}
										}
									}
								}
								JOINT newVegas:LeftHandIndex1
								{
									OFFSET 18.578728 -0.527832 5.208049
									CHANNELS 3 Xrotation Yrotation Zrotation
									JOINT newVegas:LeftHandIndex2
									{
										OFFSET 3.192009 0.000000 0.000000
										CHANNELS 3 Xrotation Yrotation Zrotation
										JOINT newVegas:LeftHandIndex3
										{
											OFFSET 3.835129 0.000000 0.000000
											CHANNELS 3 Xrotation Yrotation Zrotation
											End Site
											{
												OFFSET -0.034599 3.816971 0.371180
											}
										}
									}
								}
								JOINT newVegas:LeftHandMiddle1
								{
									OFFSET 18.476105 0.000000 0.000000
									CHANNELS 3 Xrotation Yrotation Zrotation
									JOINT newVegas:LeftHandMiddle2
									{
										OFFSET 3.324875 0.000000 0.000000
										CHANNELS 3 Xrotation Yrotation Zrotation
										JOINT newVegas:LeftHandMiddle3
										{
											OFFSET 4.596550 0.000000 0.000000
											CHANNELS 3 Xrotation Yrotation Zrotation
											End Site
											{
												OFFSET 0.057701 4.578827 0.399218
											}
										}
									}
								}
								JOINT newVegas:LeftHandRing1
								{
									OFFSET 17.732719 0.121887 -4.201567
									CHANNELS 3 Xrotation Yrotation Zrotation
									JOINT newVegas:LeftHandRing2
									{
										OFFSET 2.733170 0.000000 0.000000
										CHANNELS 3 Xrotation Yrotation Zrotation
										JOINT newVegas:LeftHandRing3
										{
											OFFSET 3.178268 0.000000 0.000000
											CHANNELS 3 Xrotation Yrotation Zrotation
											End Site
											{
												OFFSET 0.119102 3.170624 0.185394
											}
										}
									}
								}
								JOINT newVegas:LeftHandPinky1
								{
									OFFSET 15.989624 -0.606689 -7.535461
									CHANNELS 3 Xrotation Yrotation Zrotation
									JOINT newVegas:LeftHandPinky2
									{
										OFFSET 2.538986 0.000000 0.000000
										CHANNELS 3 Xrotation Yrotation Zrotation
										JOINT newVegas:LeftHandPinky3
										{
											OFFSET 2.593102 0.000000 0.000000
											CHANNELS 3 Xrotation Yrotation Zrotation
											End Site
											{
												OFFSET -0.150902 2.584198 0.152708
											}
										}
									}
								}
							}
							JOINT newVegas:Left_Sleeve
							{
								OFFSET 0.267448 -0.649796 0.577675
								CHANNELS 3 Xrotation Yrotation Zrotation
								End Site
								{
									OFFSET 0.000000 15.991241 0.000000
								}
							}
							JOINT newVegas:Left_CapeC
							{
								OFFSET 15.715958 -8.608795 -6.935905
								CHANNELS 3 Xrotation Yrotation Zrotation
								JOINT newVegas:Left_CapeC1
								{
									OFFSET 0.000000 -8.688499 0.000000
									CHANNELS 3 Xrotation Yrotation Zrotation
									End Site
									{
										OFFSET 0.000000 8.688499 0.000000
									}
								}
							}
						}
						JOINT newVegas:Left_CapeB
						{
							OFFSET 26.118385 -8.608795 -7.079235
							CHANNELS 3 Xrotation Yrotation Zrotation
							JOINT newVegas:Left_CapeB1
							{
								OFFSET 0.000000 -8.688499 0.000000
								CHANNELS 3 Xrotation Yrotation Zrotation
								End Site
								{
									OFFSET 0.000000 8.688499 0.000000
								}
							}
						}
						JOINT newVegas:Left_CapeA
						{
							OFFSET 5.115639 -8.608795 -10.395809
							CHANNELS 3 Xrotation Yrotation Zrotation
							JOINT newVegas:Left_CapeA1
							{
								OFFSET 0.000000 -8.688499 0.000000
								CHANNELS 3 Xrotation Yrotation Zrotation
								End Site
								{
									OFFSET 0.000000 8.688499 0.000000
								}
							}
						}
					}
				}
				JOINT newVegas:RightShoulder
				{
					OFFSET -15.263000 10.923401 -0.547700
					CHANNELS 3 Xrotation Yrotation Zrotation
					JOINT newVegas:RightArm
					{
						OFFSET -25.438599 -2.830597 -13.032500
						CHANNELS 3 Xrotation Yrotation Zrotation
						JOINT newVegas:RightForeArm
						{
							OFFSET -29.960503 0.000000 0.000000
							CHANNELS 3 Xrotation Yrotation Zrotation
							JOINT newVegas:RightHand
							{
								OFFSET -27.849251 0.000000 0.000000
								CHANNELS 3 Xrotation Yrotation Zrotation
								JOINT newVegas:RightHandThumb1
								{
									OFFSET -4.487587 -3.305161 6.305391
									CHANNELS 3 Xrotation Yrotation Zrotation
									JOINT newVegas:RightHandThumb2
									{
										OFFSET -5.480453 -3.164139 3.164143
										CHANNELS 3 Xrotation Yrotation Zrotation
										JOINT newVegas:RightHandThumb3
										{
											OFFSET -5.159721 -2.978973 2.978967
											CHANNELS 3 Xrotation Yrotation Zrotation
											End Site
											{
												OFFSET -2.494507 5.926697 1.738678
											}
										}
									}
								}
								JOINT newVegas:RightHandIndex1
								{
									OFFSET -18.578728 -0.527832 5.208049
									CHANNELS 3 Xrotation Yrotation Zrotation
									JOINT newVegas:RightHandIndex2
									{
										OFFSET -3.192009 0.000000 0.000000
										CHANNELS 3 Xrotation Yrotation Zrotation
										JOINT newVegas:RightHandIndex3
										{
											OFFSET -3.835129 0.000000 0.000000
											CHANNELS 3 Xrotation Yrotation Zrotation
											End Site
											{
												OFFSET 0.034599 3.816971 0.371180
											}
										}
									}
								}
								JOINT newVegas:RightHandMiddle1
								{
									OFFSET -18.476105 0.000000 0.000000
									CHANNELS 3 Xrotation Yrotation Zrotation
									JOINT newVegas:RightHandMiddle2
									{
										OFFSET -3.324875 0.000000 0.000000
										CHANNELS 3 Xrotation Yrotation Zrotation
										JOINT newVegas:RightHandMiddle3
										{
											OFFSET -4.596550 0.000000 0.000000
											CHANNELS 3 Xrotation Yrotation Zrotation
											End Site
											{
												OFFSET -0.057701 4.578827 0.399218
											}
										}
									}
								}
								JOINT newVegas:RightHandRing1
								{
									OFFSET -17.732719 0.121887 -4.201567
									CHANNELS 3 Xrotation Yrotation Zrotation
									JOINT newVegas:RightHandRing2
									{
										OFFSET -2.733170 0.000000 0.000000
										CHANNELS 3 Xrotation Yrotation Zrotation
										JOINT newVegas:RightHandRing3
										{
											OFFSET -3.178268 0.000000 0.000000
											CHANNELS 3 Xrotation Yrotation Zrotation
											End Site
											{
												OFFSET -0.119102 3.170624 0.185394
											}
										}
									}
								}
								JOINT newVegas:RightHandPinky1
								{
									OFFSET -15.989624 -0.606689 -7.535461
									CHANNELS 3 Xrotation Yrotation Zrotation
									JOINT newVegas:RightHandPinky2
									{
										OFFSET -2.538986 0.000000 0.000000
										CHANNELS 3 Xrotation Yrotation Zrotation
										JOINT newVegas:RightHandPinky3
										{
											OFFSET -2.593102 0.000000 0.000000
											CHANNELS 3 Xrotation Yrotation Zrotation
											End Site
											{
												OFFSET 0.150902 2.584198 0.152708
											}
										}
									}
								}
							}
							JOINT newVegas:Right_CapeC
							{
								OFFSET -15.715958 -8.608795 -6.935905
								CHANNELS 3 Xrotation Yrotation Zrotation
								JOINT newVegas:Right_CapeC1
								{
									OFFSET 0.000000 -8.688499 0.000000
									CHANNELS 3 Xrotation Yrotation Zrotation
									End Site
									{
										OFFSET 0.000000 8.688499 0.000000
									}
								}
							}
							JOINT newVegas:Right_Sleeve
							{
								OFFSET -0.267448 -0.649994 0.577675
								CHANNELS 3 Xrotation Yrotation Zrotation
								End Site
								{
									OFFSET 0.000000 15.991302 0.000000
								}
							}
						}
						JOINT newVegas:Right_CapeA
						{
							OFFSET -5.115540 -8.608795 -10.395824
							CHANNELS 3 Xrotation Yrotation Zrotation
							JOINT newVegas:Right_CapeA1
							{
								OFFSET 0.000000 -8.688499 0.000000
								CHANNELS 3 Xrotation Yrotation Zrotation
								End Site
								{
									OFFSET 0.000000 8.688499 0.000000
								}
							}
						}
						JOINT newVegas:Right_CapeB
						{
							OFFSET -26.118187 -8.608795 -7.079266
							CHANNELS 3 Xrotation Yrotation Zrotation
							JOINT newVegas:Right_CapeB1
							{
								OFFSET 0.000000 -8.688499 0.000000
								CHANNELS 3 Xrotation Yrotation Zrotation
								End Site
								{
									OFFSET 0.000000 8.688499 0.000000
								}
							}
						}
					}
				}
				JOINT newVegas:Left_Collar
				{
					OFFSET 18.625099 8.655502 8.828100
					CHANNELS 3 Xrotation Yrotation Zrotation
					JOINT newVegas:Left_Collar1
					{
						OFFSET 14.783401 10.540405 -1.259500
						CHANNELS 3 Xrotation Yrotation Zrotation
						End Site
						{
							OFFSET 0.000000 18.199875 0.000000
						}
					}
				}
				JOINT newVegas:Collar_Back
				{
					OFFSET 0.000000 15.630707 -20.132601
					CHANNELS 3 Xrotation Yrotation Zrotation
					End Site
					{
						OFFSET 0.000000 22.523010 0.000000
					}
				}
				JOINT newVegas:Left_Peck
				{
					OFFSET 17.239599 -5.132599 25.482599
					CHANNELS 3 Xrotation Yrotation Zrotation
					End Site
					{
						OFFSET 0.000000 22.523010 0.000000
					}
				}
				JOINT newVegas:Right_Peck
				{
					OFFSET -17.239599 -5.132202 25.482599
					CHANNELS 3 Xrotation Yrotation Zrotation
					End Site
					{
						OFFSET 0.000000 22.523010 0.000000
					}
				}
				JOINT newVegas:Right_Collar
				{
					OFFSET -18.625099 8.655792 8.828100
					CHANNELS 3 Xrotation Yrotation Zrotation
					JOINT newVegas:Right_Collar1
					{
						OFFSET -14.783401 10.539993 -1.259500
						CHANNELS 3 Xrotation Yrotation Zrotation
						End Site
						{
							OFFSET 0.000000 18.199631 0.000000
						}
					}
				}
			}
		}
		JOINT newVegas:Belly
		{
			OFFSET 0.000000 -6.540398 9.014299
			CHANNELS 3 Xrotation Yrotation Zrotation
			End Site
			{
				OFFSET 0.000000 11.566666 0.000000
			}
		}
	}
	JOINT newVegas:ElvisFacialAnim_Joint
	{
		OFFSET 1.000000 -95.330101 -8.825800
		CHANNELS 3 Xrotation Yrotation Zrotation
		End Site
		{
			OFFSET 0.000000 35.315800 0.000000
		}
	}
}
MOTION
Frames: 4
Frame Time: 0.016667
3.799194 80.258499 2.138474 10.506113 67.130303 -12.185367 -0.000000 -0.000002 0.000000 -18.019642 -2.236017 25.266495 57.065476 -7.493082 10.470925 -38.490548 7.338100 -17.765575 0.000000 -0.000003 -0.000000 0.000002 0.000001 -0.000000 -39.052693 10.976000 -19.595970 50.213164 10.193975 -6.621961 -17.125535 0.088517 25.683431 0.000000 -0.000001 -0.000000 0.000000 0.000000 -0.000000 1.867863 -1.811654 0.508899 2.147804 -0.574861 -0.033124 2.136799 -0.620496 -0.146678 -1.777541 -4.150046 0.170112 -1.777543 -4.150029 0.170110 0.000000 0.000001 -0.000000 -1.777470 -4.150051 0.170121 -1.777546 -4.150015 0.170107 0.000000 -0.000001 -0.000000 0.000000 0.000001 -0.000000 1.127383 -10.640391 -5.486605 -1.802083 -47.065440 -47.163163 -0.000011 -106.321928 -0.000013 -14.181004 -27.377403 4.759059 -9.674873 0.269255 1.575495 18.503636 20.929646 -3.451914 -0.000000 -0.000001 0.000000 -3.846433 2.878465 -61.548078 2.994981 5.108761 -60.739896 -0.000001 -0.000002 -0.000000 -2.841124 4.594533 -63.952134 4.026887 5.560370 -71.804850 -0.000001 -0.000004 0.000002 -4.005792 6.210658 -77.776867 4.605490 5.717388 -77.688074 0.000000 -0.000001 0.000001 -0.923503 7.377222 -82.600879 4.957385 5.782626 -81.199543 0.000001 -0.000002 0.000002 0.000001 -0.000001 0.000001 0.000001 -0.000001 0.000001 -0.000000 -0.000001 0.000001 -0.000000 -0.000001 0.000001 -0.000000 0.000000 0.000001 -0.000000 -0.000001 0.000001 -0.000000 -0.000000 0.000001 0.469307 -2.168345 7.105749 -29.988369 -15.739997 41.708396 0.000143 109.347183 -0.000144 14.603132 20.324244 -39.470034 -6.752288 7.209108 -18.581246 15.979733 -27.517686 14.723410 0.000001 -0.000003 0.000001 -4.026014 10.918944 28.366763 3.771262 -4.572313 79.022256 -0.000000 -0.000000 -0.000001 -4.881340 0.185801 47.726118 2.776635 -4.261370 66.161194 -0.000000 -0.000000 0.000000 -3.940816 -1.274167 51.126401 3.609632 -4.538074 76.987358 -0.000000 0.000001 0.000001 -2.235442 -3.308467 56.826976 2.160900 -3.932879 57.559316 0.000001 -0.000000 -0.000002 -0.000001 0.000001 -0.000000 -0.000001 0.000000 0.000003 -0.000001 0.000001 0.000001 0.000001 0.000001 0.000001 0.000001 0.000002 0.000001 0.000001 0.000001 0.000001 0.000001 0.000002 0.000001 0.000000 0.000000 -0.000001 0.000000 0.000000 -0.000001 0.000000 0.000000 -0.000001 0.000000 0.000000 -0.000001 0.000000 0.000000 -0.000001 0.000000 0.000000 -0.000001 0.000000 0.000000 -0.000001 -0.000000 0.000001 0.000000 -0.000000 -0.000002 0.000000 
4.054844 81.712090 2.149626 9.031643 65.414156 -10.494435 0.000000 -0.000001 -0.000000 -16.666317 -0.015654 24.492792 54.155252 -7.319044 10.805132 -34.911313 6.992176 -18.117292 -0.000000 -0.000000 -0.000001 0.000003 0.000000 0.000001 -37.920623 10.002482 -19.880142 44.593865 10.061677 -6.702479 -12.742011 3.548812 27.102768 0.000000 0.000000 0.000000 -0.000002 0.000003 0.000003 1.926200 -2.102244 0.319652 2.196508 -0.669197 -0.093633 2.178840 -0.721575 -0.214627 -1.673734 -4.031251 0.240173 -1.673725 -4.031266 0.240175 -0.000000 0.000001 -0.000000 -1.673732 -4.031261 0.240173 -1.673729 -4.031257 0.240174 0.000000 0.000002 0.000000 -0.000000 0.000001 0.000000 1.159397 -10.584913 -4.968927 -3.440715 -46.440485 -48.700523 0.000210 -107.022296 0.000204 -13.940661 -26.498755 3.948681 -9.674874 0.269250 1.575491 18.506551 20.943346 -3.449967 0.000004 0.000002 -0.000004 -3.845314 2.879134 -61.562544 2.996294 5.109480 -60.754430 0.000000 -0.000001 0.000003 -2.840568 4.596723 -63.966361 4.028332 5.560838 -71.819617 -0.000002 -0.000001 0.000001 -4.004849 6.213140 -77.791026 4.606983 5.717712 -77.702944 0.000002 -0.000002 -0.000001 -0.922246 7.378941 -82.615263 4.958868 5.782855 -81.214241 -0.000001 0.000002 0.000002 0.000001 -0.000001 -0.000000 0.000001 -0.000001 -0.000000 0.000000 -0.000000 0.000000 -0.000000 -0.000001 -0.000000 0.000000 -0.000001 -0.000000 -0.000000 -0.000001 -0.000000 -0.000000 -0.000001 -0.000000 0.472922 -1.987586 7.167158 -29.704807 -14.959998 41.837784 -0.000319 110.239636 0.000284 15.232244 19.900567 -39.661457 -6.752287 7.209104 -18.581244 15.985337 -27.530496 14.722640 -0.000000 0.000001 -0.000001 -4.025360 10.917533 28.381014 3.772419 -4.572538 79.036777 0.000000 0.000001 0.000000 -4.881955 0.183417 47.740219 2.777737 -4.261856 66.176043 -0.000001 0.000001 -0.000003 -3.941070 -1.276328 51.140577 3.610803 -4.538339 77.002084 -0.000001 0.000001 -0.000001 -2.235184 -3.310208 56.841265 2.161883 -3.933517 57.573898 0.000001 0.000003 -0.000001 -0.000000 0.000003 -0.000000 -0.000001 0.000002 0.000004 -0.000001 0.000003 0.000001 -0.000000 -0.000003 0.000001 -0.000000 -0.000002 0.000003 -0.000000 -0.000003 0.000001 -0.000000 -0.000002 0.000003 0.000000 0.000001 -0.000000 0.000000 0.000001 -0.000000 0.000000 0.000001 -0.000000 0.000000 0.000001 -0.000000 0.000000 0.000001 -0.000000 0.000000 0.000001 -0.000000 0.000000 0.000001 -0.000000 0.000001 -0.000003 0.000000 0.000000 -0.000001 -0.000000 
4.352537 83.321808 2.170115 7.828027 63.414803 -9.018696 0.000000 0.000000 -0.000000 -15.570099 2.125118 23.593316 51.274111 -6.951973 10.948316 -30.352749 6.435129 -18.372758 -0.000000 0.000004 -0.000000 -0.000000 0.000001 0.000003 -36.523555 8.800108 -19.941586 38.074773 9.917371 -6.814500 -7.718529 7.126580 28.012126 0.000000 -0.000001 0.000000 0.000001 -0.000001 0.000000 1.865658 -2.381639 0.046648 2.147878 -0.743391 -0.181096 2.123234 -0.800164 -0.306782 -1.526906 -3.897256 0.334237 -1.526907 -3.897260 0.334237 0.000000 0.000001 -0.000000 -1.526903 -3.897266 0.334236 -1.526842 -3.897238 0.334238 -0.000000 0.000002 0.000000 0.000000 0.000001 -0.000000 1.197100 -10.412337 -4.302577 -5.193336 -45.854260 -50.234129 -0.000134 -107.756015 -0.000143 -13.352827 -25.456264 3.281911 -9.674874 0.269247 1.575492 18.511314 20.965595 -3.446843 0.000002 0.000001 -0.000001 -3.843477 2.880165 -61.586060 2.998399 5.110653 -60.778015 0.000000 0.000001 -0.000003 -2.839661 4.600270 -63.989488 4.030656 5.561590 -71.843550 -0.000001 -0.000003 0.000001 -4.003293 6.217113 -77.814050 4.609374 5.718221 -77.727122 0.000002 -0.000002 -0.000000 -0.920183 7.381719 -82.638657 4.961284 5.783230 -81.238140 -0.000000 0.000000 -0.000001 -0.000002 -0.000000 -0.000000 -0.000002 -0.000000 -0.000000 -0.000003 -0.000000 0.000000 0.000000 -0.000001 -0.000002 0.000001 -0.000001 -0.000002 0.000000 -0.000001 -0.000002 0.000000 -0.000002 -0.000003 0.488558 -1.683400 7.375537 -29.457206 -13.864246 41.538192 0.000050 111.001646 -0.000045 15.563242 19.335514 -39.736114 -6.752287 7.209107 -18.581246 15.994430 -27.551299 14.721358 -0.000000 -0.000003 -0.000001 -4.024283 10.915248 28.404144 3.774297 -4.572901 79.060334 -0.000000 0.000000 -0.000000 -4.882948 0.179551 47.763120 2.779530 -4.262645 66.200154 0.000000 0.000000 -0.000002 -3.941485 -1.279833 51.163629 3.612698 -4.538773 77.026058 -0.000002 -0.000001 0.000004 -2.234765 -3.313046 56.864556 2.163527 -3.934546 57.597653 -0.000000 0.000001 0.000001 0.000003 0.000004 -0.000003 0.000003 0.000002 -0.000003 0.000003 0.000004 -0.000003 0.000001 0.000000 -0.000003 0.000001 0.000001 -0.000001 0.000001 0.000000 -0.000003 0.000001 0.000001 -0.000000 -0.000000 0.000001 0.000000 -0.000000 0.000001 0.000000 -0.000000 0.000001 0.000000 -0.000000 0.000001 0.000000 -0.000000 0.000001 0.000000 -0.000000 0.000001 0.000000 -0.000000 0.000001 0.000000 0.000000 -0.000000 0.000000 0.000000 0.000000 -0.000000 
4.811980 85.365349 2.230452 7.023585 60.677215 -7.801895 0.000000 -0.000000 -0.000000 -14.993848 4.268491 22.586481 48.222809 -6.232271 10.466179 -23.390094 5.345392 -18.487804 -0.000000 0.000001 -0.000000 -0.000001 0.000000 -0.000000 -34.719586 7.067598 -19.056270 29.438665 9.601891 -7.750516 -1.186800 11.506456 28.190274 0.000000 0.000000 0.000000 -0.000001 0.000000 0.000001 1.445641 -2.642980 -0.450106 1.806340 -0.774960 -0.347969 1.773440 -0.829132 -0.471257 -1.239802 -3.720667 0.504909 -1.239804 -3.720667 0.504910 -0.000001 0.000001 -0.000000 -1.239802 -3.720674 0.504911 -1.239740 -3.720620 0.504906 0.000000 0.000001 -0.000000 -0.000001 0.000001 -0.000001 1.239728 -9.854048 -3.184281 -7.337285 -45.581438 -51.880338 0.000141 -108.518408 0.000147 -11.745953 -23.953233 2.992333 -9.674871 0.269250 1.575494 18.520702 21.009554 -3.440670 0.000002 -0.000002 -0.000001 -3.839859 2.882211 -61.632485 3.002532 5.112961 -60.824576 0.000000 -0.000000 -0.000002 -2.837884 4.607293 -64.035182 4.035237 5.563084 -71.890862 0.000001 -0.000001 -0.000001 -4.000246 6.225021 -77.859512 4.614133 5.719261 -77.774900 0.000001 0.000001 -0.000000 -0.916132 7.387208 -82.684870 4.966042 5.783932 -81.285350 -0.000001 -0.000003 -0.000000 0.000001 0.000001 -0.000000 0.000001 0.000001 -0.000000 0.000000 0.000001 0.000000 -0.000000 0.000000 -0.000002 0.000000 -0.000001 -0.000005 -0.000000 0.000000 -0.000002 -0.000000 -0.000001 -0.000002 0.528483 -1.104086 8.063767 -29.166509 -11.793682 40.000282 0.000040 111.367088 -0.000040 15.073732 18.358083 -39.503307 -6.752287 7.209107 -18.581250 16.012438 -27.592458 14.718931 -0.000001 -0.000005 -0.000003 -4.022151 10.910750 28.449818 3.778014 -4.573615 79.106964 -0.000000 -0.000000 0.000001 -4.884905 0.171901 47.808377 2.783068 -4.264199 66.247774 -0.000001 -0.000000 0.000002 -3.942286 -1.286757 51.209186 3.616444 -4.539636 77.073412 -0.000000 0.000002 0.000001 -2.233942 -3.318631 56.910526 2.166741 -3.936587 57.644570 -0.000000 -0.000000 -0.000001 0.000001 -0.000000 0.000001 -0.000000 0.000001 -0.000002 0.000000 -0.000000 -0.000000 0.000001 -0.000001 -0.000003 0.000001 0.000000 -0.000003 0.000001 -0.000001 -0.000003 0.000001 -0.000000 -0.000002 0.000000 0.000001 -0.000001 0.000000 0.000001 -0.000001 0.000000 0.000001 -0.000001 0.000000 0.000001 -0.000001 0.000000 0.000001 -0.000001 0.000000 0.000001 -0.000001 0.000000 0.000001 -0.000001 -0.000000 0.000000 0.000000 0.000000 -0.000000 -0.000000 
